<svg width="147" height="94" viewBox="0 0 147 94" fill="none" xmlns="http://www.w3.org/2000/svg">
<path d="M53.7379 66.3332V59.7339C53.7379 56.2333 52.3474 52.8762 49.8721 50.401C47.3969 47.9257 44.0397 46.5352 40.5392 46.5352H14.1418C10.6413 46.5352 7.28416 47.9257 4.80893 50.401C2.33369 52.8762 0.943115 56.2333 0.943115 59.7339V66.3332" fill="#231B22"/>
<path d="M27.3401 41.3974C34.6295 41.3974 40.5388 35.4881 40.5388 28.1987C40.5388 20.9093 34.6295 15 27.3401 15C20.0506 15 14.1414 20.9093 14.1414 28.1987C14.1414 35.4881 20.0506 41.3974 27.3401 41.3974Z" fill="#231B22"/>
<path d="M146.795 66.3332V59.7339C146.795 56.2333 145.404 52.8762 142.929 50.401C140.454 47.9257 137.097 46.5352 133.596 46.5352H107.199C103.698 46.5352 100.341 47.9257 97.8658 50.401C95.3906 52.8762 94 56.2333 94 59.7339V66.3332" fill="#231B22"/>
<path d="M120.397 41.3974C127.686 41.3974 133.596 35.4881 133.596 28.1987C133.596 20.9093 127.686 15 120.397 15C113.108 15 107.198 20.9093 107.198 28.1987C107.198 35.4881 113.108 41.3974 120.397 41.3974Z" fill="#231B22"/>
<mask id="path-5-outside-1_697_146" maskUnits="userSpaceOnUse" x="23.1992" y="49.8789" width="102" height="44" fill="black">
<rect fill="white" x="23.1992" y="49.8789" width="102" height="44"/>
<path d="M120.076 89.3327V77.8481C120.076 71.7563 117.656 65.914 113.349 61.6064C109.041 57.2989 103.199 54.8789 97.1068 54.8789H51.1684C45.0766 54.8789 39.2343 57.2989 34.9267 61.6064C30.6192 65.914 28.1992 71.7563 28.1992 77.8481V89.3327"/>
</mask>
<path d="M120.076 89.3327V77.8481C120.076 71.7563 117.656 65.914 113.349 61.6064C109.041 57.2989 103.199 54.8789 97.1068 54.8789H51.1684C45.0766 54.8789 39.2343 57.2989 34.9267 61.6064C30.6192 65.914 28.1992 71.7563 28.1992 77.8481V89.3327" fill="#231B22"/>
<path d="M115.566 89.3327C115.566 91.8235 117.585 93.8427 120.076 93.8427C122.567 93.8427 124.586 91.8235 124.586 89.3327H115.566ZM97.1068 54.8789V50.3689V54.8789ZM51.1684 54.8789V50.3689V54.8789ZM28.1992 77.8481H23.6892H28.1992ZM23.6892 89.3327C23.6892 91.8235 25.7084 93.8427 28.1992 93.8427C30.69 93.8427 32.7092 91.8235 32.7092 89.3327H23.6892ZM124.586 89.3327V77.8481H115.566V89.3327H124.586ZM124.586 77.8481C124.586 70.5602 121.691 63.5707 116.538 58.4174L110.159 64.7955C113.621 68.2573 115.566 72.9524 115.566 77.8481H124.586ZM116.538 58.4174C111.384 53.264 104.395 50.3689 97.1068 50.3689V59.3889C102.003 59.3889 106.698 61.3337 110.159 64.7955L116.538 58.4174ZM97.1068 50.3689H51.1684V59.3889H97.1068V50.3689ZM51.1684 50.3689C43.8805 50.3689 36.891 53.264 31.7377 58.4174L38.1158 64.7955C41.5776 61.3337 46.2727 59.3889 51.1684 59.3889V50.3689ZM31.7377 58.4174C26.5843 63.5707 23.6892 70.5602 23.6892 77.8481H32.7092C32.7092 72.9524 34.654 68.2573 38.1158 64.7955L31.7377 58.4174ZM23.6892 77.8481V89.3327H32.7092V77.8481H23.6892Z" fill="#F5F5FA" mask="url(#path-5-outside-1_697_146)"/>
<path d="M74.1369 45.9384C86.8225 45.9384 97.1061 35.6547 97.1061 22.9692C97.1061 10.2837 86.8225 0 74.1369 0C61.4514 0 51.1677 10.2837 51.1677 22.9692C51.1677 35.6547 61.4514 45.9384 74.1369 45.9384Z" fill="#231B22"/>
</svg>
