<svg width="32" height="32" viewBox="0 0 32 32" fill="none" xmlns="http://www.w3.org/2000/svg">
<path d="M30.9992 14.0196L30.8195 13.0017L18.7963 15.1217L29.3691 9.01787L28.8522 8.12249L18.2794 14.2263L26.1271 4.87415L25.3351 4.20937L17.4874 13.5616L21.6629 2.0902L20.6912 1.73634L16.5157 13.2085V1H15.4819V13.2085L11.3072 1.73634L10.3355 2.0902L14.511 13.5624L6.66411 4.21017L5.87211 4.87494L13.7198 14.2271L3.14621 8.12249L2.62934 9.01787L13.2021 15.1217L1.17971 13.0017L1 14.0196L13.0232 16.1396L1 18.2595L1.17971 19.2774L13.2029 17.1574L2.62934 23.262L3.14621 24.1574L13.719 18.0536L5.87131 27.4058L6.66332 28.0705L14.511 18.7183L10.3355 30.1905L11.3072 30.5444L15.4827 19.0722V31.2807H16.5165V19.0714L20.692 30.5436L21.6637 30.1897L17.4882 18.7176L25.3359 28.0697L26.1279 27.405L18.2802 18.0528L28.853 24.1566L29.3699 23.2612L18.7971 17.1574L30.8203 19.2774L31 18.2595L18.9768 16.1396L31 14.0196H30.9992ZM15.9996 18.4854C14.7042 18.4854 13.6538 17.4349 13.6538 16.1396C13.6538 14.8442 14.7042 13.7938 15.9996 13.7938C17.295 13.7938 18.3454 14.8442 18.3454 16.1396C18.3454 17.4349 17.295 18.4854 15.9996 18.4854Z" fill="#231B22" stroke="black"/>
</svg>
