<svg width="170" height="170" viewBox="0 0 170 170" fill="none" xmlns="http://www.w3.org/2000/svg">
<path d="M117.151 43.4594L92.8475 47.7447L114.219 35.4065L114.517 35.2347L114.345 34.9371L113.218 32.9843L113.046 32.6867L112.748 32.8585L91.3765 45.1967L107.24 26.2923L107.461 26.0291L107.197 25.8082L105.47 24.3583L105.207 24.1374L104.986 24.4006L89.1227 43.305L97.563 20.1171L97.6805 19.7942L97.3576 19.6767L95.2383 18.9049L94.9153 18.7873L94.7978 19.1103L86.3574 42.2999V17.6218V17.2782H86.0138H83.7592H83.4156V17.6218V42.2996L74.977 19.1103L74.8594 18.7873L74.5365 18.9049L72.4171 19.6767L72.0943 19.7942L72.2118 20.1171L80.6521 43.3066L64.7906 24.4024L64.5697 24.1391L64.3064 24.3601L62.5791 25.8099L62.3159 26.0308L62.5367 26.294L78.3999 45.1984L57.0266 32.8585L56.7289 32.6867L56.5571 32.9843L55.4298 34.9371L55.258 35.2347L55.5556 35.4065L76.9272 47.7447L52.6255 43.4594L52.2871 43.3998L52.2274 43.7381L51.8354 45.958L51.7757 46.2965L52.1142 46.3562L76.4177 50.6415L52.1142 54.9268L51.7757 54.9864L51.8354 55.3249L52.2274 57.5448L52.2871 57.8832L52.6255 57.8235L76.9291 53.5382L55.5556 65.8782L55.258 66.05L55.4298 66.3475L56.5571 68.3004L56.7289 68.598L57.0266 68.4262L78.3983 56.0879L62.535 74.9924L62.3142 75.2556L62.5773 75.4765L64.3047 76.9264L64.5679 77.1473L64.7889 76.8841L80.6522 57.9796L72.2118 81.1693L72.0943 81.4922L72.4171 81.6097L74.5365 82.3815L74.8594 82.4991L74.9769 82.1762L83.4173 58.9865V83.6646V84.0082H83.7609H86.0155H86.3592V83.6646V58.9848L94.7995 82.1744L94.9171 82.4974L95.24 82.3798L97.3594 81.608L97.6822 81.4904L97.5647 81.1676L89.1243 57.9778L104.988 76.8823L105.209 77.1456L105.472 76.9246L107.199 75.4747L107.462 75.2539L107.241 74.9907L91.3782 56.0862L112.75 68.4245L113.048 68.5963L113.219 68.2987L114.347 66.3458L114.518 66.0482L114.221 65.8764L92.8493 53.5382L117.153 57.8235L117.491 57.8832L117.551 57.5448L117.943 55.3249L118.003 54.9864L117.664 54.9268L93.3605 50.6415L117.664 46.3562L117.634 46.0123L117.941 45.958L117.549 43.7381L117.489 43.3998L117.151 43.4594ZM84.8882 55.4141C82.2528 55.4141 80.1156 53.2769 80.1156 50.6415C80.1156 48.0061 82.2528 45.8689 84.8882 45.8689C87.5237 45.8689 89.6608 48.0061 89.6608 50.6415C89.6608 53.2769 87.5237 55.4141 84.8882 55.4141Z" fill="#231B22" stroke="#231B22" stroke-width="0.687271"/>
<path d="M122.686 91.5022L122.984 90.9867H122.389H47.4904H46.8952L47.1928 91.5021L65.9164 123.934L84.6401 156.366L84.9377 156.881L85.2353 156.366L103.959 123.934L122.686 91.5022ZM117.888 93.9286L101.413 122.463L84.9377 150.997L68.4645 122.463L51.9912 93.9286H117.888Z" fill="#231B22" stroke="#231B22" stroke-width="0.687271"/>
<path d="M166.955 85.0367C166.955 130.32 130.246 167.029 84.9634 167.029C39.6806 167.029 2.97154 130.32 2.97154 85.0367C2.97154 39.7538 39.6806 3.04478 84.9634 3.04478C130.246 3.04478 166.955 39.7538 166.955 85.0367ZM84.9634 169.417C131.565 169.417 169.344 131.639 169.344 85.0367C169.344 38.4347 131.565 0.656365 84.9634 0.656365C38.3615 0.656365 0.583122 38.4347 0.583122 85.0367C0.583122 131.639 38.3615 169.417 84.9634 169.417Z" fill="#231B22" stroke="#231B22" stroke-width="0.687271"/>
</svg>
