<svg width="38" height="66" viewBox="0 0 38 66" fill="none" xmlns="http://www.w3.org/2000/svg">
<path d="M22.7276 47.2453L37.7099 49.8625L37.57 50.6476L22.586 48.03L22.4188 48.4933L35.5923 56.0281L35.1893 56.7197L22.0124 49.1829L21.6975 49.5615L31.4748 61.1053L30.8561 61.6199L21.0758 50.0726L20.6504 50.3204L25.8527 64.4811L25.0922 64.7554L19.8889 50.592L19.4042 50.6783V65.75H18.5948V50.6793L18.1101 50.593L12.9068 64.7564L12.1463 64.4821L17.3486 50.3214L16.9232 50.0736L7.14289 61.6208L6.52414 61.1063L16.3015 49.5625L15.9866 49.1839L2.80968 56.7207L2.40671 56.0291L15.5812 48.4933L15.414 48.03L0.430045 50.6476L0.290135 49.8625L15.2724 47.2453V46.7527L0.290135 44.1355L0.430044 43.3504L15.413 45.968L15.5802 45.5047L2.40671 37.9699L2.80968 37.2783L15.9876 44.8161L16.3025 44.4375L6.52515 32.8937L7.14389 32.3792L16.9232 43.9264L17.3486 43.6786L12.1463 29.5179L12.9068 29.2436L18.1091 43.4069L18.5938 43.3207V28.25H19.4032V43.3207L19.8879 43.407L25.0911 29.2436L25.8517 29.5179L20.6494 43.6776L21.0748 43.9254L30.8551 32.3782L31.4738 32.8927L21.6965 44.4365L22.0114 44.8151L35.1883 37.2783L35.5913 37.9699L22.4178 45.5047L22.585 45.968L37.569 43.3504L37.7089 44.1357L22.7276 46.7527V47.2453ZM15.7782 46.999C15.7782 48.7648 17.2228 50.1928 18.9995 50.1928C20.7762 50.1928 22.2208 48.7648 22.2208 46.999C22.2208 45.2332 20.7762 43.8052 18.9995 43.8052C17.2228 43.8052 15.7782 45.2332 15.7782 46.999Z" fill="#231B22" stroke="black" stroke-width="0.5"/>
<path d="M2.26709 15H4.22709V7.902L7.20909 11.948L10.2751 7.832V15H12.2071V4.78H10.3731L7.22309 8.994L4.18509 4.78H2.26709V15ZM14.1086 15H16.1106V4.78H14.1086V15ZM18.0171 15H19.9351V7.818L24.5551 15H26.5151V4.78H24.6111V11.738L20.1311 4.78H18.0171V15ZM28.353 15H31.699C34.751 15 36.991 12.802 36.991 9.89C36.991 6.992 34.905 4.78 31.657 4.78H28.353V15ZM31.517 6.614C33.757 6.614 34.989 8.014 34.989 9.89C34.989 11.724 33.645 13.152 31.573 13.152H30.341V6.614H31.517Z" fill="#231B22"/>
</svg>
