<svg width="35" height="198" viewBox="0 0 35 198" fill="none" xmlns="http://www.w3.org/2000/svg">
<path d="M2.22894 113.24H3.87294L6.47694 116.852L9.17694 113.24H10.7489V122H9.09294V115.856L6.46494 119.384L3.90894 115.916V122H2.22894V113.24ZM12.3788 113.24H14.0948V122H12.3788V113.24ZM15.7289 113.24H17.5409L21.3809 119.204V113.24H23.0129V122H21.3329L17.3729 115.844V122H15.7289V113.24ZM24.5883 113.24H27.4203C28.1163 113.24 28.7443 113.352 29.3043 113.576C29.8723 113.8 30.3523 114.108 30.7443 114.5C31.1443 114.892 31.4523 115.356 31.6683 115.892C31.8843 116.42 31.9923 116.996 31.9923 117.62C31.9923 118.244 31.8763 118.824 31.6443 119.36C31.4203 119.896 31.1043 120.36 30.6963 120.752C30.2963 121.136 29.8203 121.44 29.2683 121.664C28.7163 121.888 28.1123 122 27.4563 122H24.5883V113.24ZM26.2923 114.812V120.416H27.3483C27.7883 120.416 28.1883 120.344 28.5483 120.2C28.9163 120.056 29.2243 119.86 29.4723 119.612C29.7283 119.356 29.9243 119.06 30.0603 118.724C30.2043 118.38 30.2763 118.012 30.2763 117.62C30.2763 117.22 30.2083 116.848 30.0723 116.504C29.9443 116.16 29.7523 115.864 29.4963 115.616C29.2483 115.36 28.9403 115.164 28.5723 115.028C28.2043 114.884 27.7803 114.812 27.3003 114.812H26.2923Z" fill="#231B22"/>
<path d="M32.9992 83.7588L32.8075 82.6832L19.9827 84.9235L31.2603 78.4731L30.709 77.5269L19.4314 83.9773L27.8022 74.0941L26.9574 73.3916L18.5866 83.2748L23.0405 71.1521L22.004 70.7782L17.5501 82.9017V70H16.4474V82.9017L11.9944 70.7782L10.9579 71.1521L15.4117 83.2756L7.04172 73.3924L6.19691 74.095L14.5678 83.9782L3.28929 77.5269L2.73796 78.4731L14.0156 84.9235L1.19169 82.6832L1 83.7588L13.8248 85.9992L1 88.2395L1.19169 89.3151L14.0165 87.0748L2.73796 93.526L3.28929 94.4723L14.5669 88.0219L6.19607 97.905L7.04087 98.6076L15.4117 88.7244L10.9579 100.848L11.9944 101.222L16.4482 89.0983V102H17.5509V89.0975L22.0048 101.221L23.0413 100.847L18.5874 88.7235L26.9583 98.6067L27.8031 97.9042L19.4322 88.021L30.7099 94.4714L31.2612 93.5252L19.9835 87.0748L32.8083 89.3151L33 88.2395L20.1752 85.9992L33 83.7588H32.9992ZM16.9996 88.4782C15.6179 88.4782 14.4974 87.3681 14.4974 85.9992C14.4974 84.6303 15.6179 83.5202 16.9996 83.5202C18.3813 83.5202 19.5018 84.6303 19.5018 85.9992C19.5018 87.3681 18.3813 88.4782 16.9996 88.4782Z" fill="#231B22"/>
<path d="M0.769953 41.24H4.39395C5.36995 41.24 6.11795 41.452 6.63795 41.876C7.16595 42.292 7.42995 42.896 7.42995 43.688C7.42995 44.096 7.34195 44.448 7.16595 44.744C6.99795 45.04 6.74995 45.28 6.42195 45.464C6.78995 45.648 7.06995 45.904 7.26195 46.232C7.46195 46.56 7.56195 46.952 7.56195 47.408C7.56195 47.84 7.48995 48.22 7.34595 48.548C7.20195 48.868 6.99395 49.136 6.72195 49.352C6.44995 49.568 6.11795 49.732 5.72595 49.844C5.34195 49.948 4.90595 50 4.41795 50H0.769953V41.24ZM2.43795 46.292V48.476H4.44195C4.90595 48.476 5.25395 48.38 5.48595 48.188C5.72595 47.988 5.84595 47.716 5.84595 47.372C5.84595 47.028 5.73395 46.764 5.50995 46.58C5.28595 46.388 4.90595 46.292 4.36995 46.292H2.43795ZM2.43795 42.74V44.768H4.45395C4.90995 44.768 5.23795 44.672 5.43795 44.48C5.63795 44.28 5.73795 44.028 5.73795 43.724C5.73795 43.42 5.62995 43.18 5.41395 43.004C5.20595 42.828 4.87795 42.74 4.42995 42.74H2.43795ZM13.0221 50.12C12.3981 50.12 11.8141 50.004 11.2701 49.772C10.7261 49.532 10.2501 49.208 9.84214 48.8C9.44214 48.392 9.12614 47.916 8.89414 47.372C8.66214 46.828 8.54614 46.244 8.54614 45.62C8.54614 44.996 8.66214 44.412 8.89414 43.868C9.12614 43.324 9.44214 42.848 9.84214 42.44C10.2501 42.032 10.7261 41.712 11.2701 41.48C11.8141 41.24 12.3981 41.12 13.0221 41.12C13.6461 41.12 14.2301 41.24 14.7741 41.48C15.3261 41.712 15.8021 42.032 16.2021 42.44C16.6101 42.848 16.9301 43.324 17.1621 43.868C17.4021 44.412 17.5221 44.996 17.5221 45.62C17.5221 46.244 17.4061 46.828 17.1741 47.372C16.9421 47.916 16.6221 48.392 16.2141 48.8C15.8061 49.208 15.3261 49.532 14.7741 49.772C14.2301 50.004 13.6461 50.12 13.0221 50.12ZM13.0221 48.452C13.4221 48.452 13.7901 48.38 14.1261 48.236C14.4701 48.084 14.7661 47.88 15.0141 47.624C15.2701 47.36 15.4661 47.056 15.6021 46.712C15.7461 46.368 15.8181 46.004 15.8181 45.62C15.8181 45.228 15.7461 44.86 15.6021 44.516C15.4581 44.172 15.2621 43.872 15.0141 43.616C14.7661 43.36 14.4701 43.156 14.1261 43.004C13.7821 42.852 13.4141 42.776 13.0221 42.776C12.6301 42.776 12.2621 42.852 11.9181 43.004C11.5821 43.156 11.2901 43.36 11.0421 43.616C10.7941 43.872 10.5981 44.172 10.4541 44.516C10.3181 44.86 10.2501 45.228 10.2501 45.62C10.2501 46.004 10.3181 46.368 10.4541 46.712C10.5981 47.056 10.7941 47.36 11.0421 47.624C11.2901 47.88 11.5821 48.084 11.9181 48.236C12.2621 48.38 12.6301 48.452 13.0221 48.452ZM18.8285 41.24H21.6605C22.3565 41.24 22.9845 41.352 23.5445 41.576C24.1125 41.8 24.5925 42.108 24.9845 42.5C25.3845 42.892 25.6925 43.356 25.9085 43.892C26.1245 44.42 26.2325 44.996 26.2325 45.62C26.2325 46.244 26.1165 46.824 25.8845 47.36C25.6605 47.896 25.3445 48.36 24.9365 48.752C24.5365 49.136 24.0605 49.44 23.5085 49.664C22.9565 49.888 22.3525 50 21.6965 50H18.8285V41.24ZM20.5325 42.812V48.416H21.5885C22.0285 48.416 22.4285 48.344 22.7885 48.2C23.1565 48.056 23.4645 47.86 23.7125 47.612C23.9685 47.356 24.1645 47.06 24.3005 46.724C24.4445 46.38 24.5165 46.012 24.5165 45.62C24.5165 45.22 24.4485 44.848 24.3125 44.504C24.1845 44.16 23.9925 43.864 23.7365 43.616C23.4885 43.36 23.1805 43.164 22.8125 43.028C22.4445 42.884 22.0205 42.812 21.5405 42.812H20.5325ZM29.1038 46.304L26.1278 41.24H27.9878L29.9678 44.72L31.9478 41.24H33.7958L30.8078 46.34V50H29.1038V46.304Z" fill="#231B22"/>
<path d="M32.8348 1.04278L25.0773 14.4786L17.3198 27.9144L9.5631 14.4786L1.80642 1.04278H32.8348ZM34.6412 0H0L8.65989 15L17.3198 30L25.9797 15L34.6412 0Z" fill="#231B22"/>
<path d="M5.85198 194H11.6V192.356H7.55598V185.24H5.85198V194ZM12.9432 194H14.6592V185.24H12.9432V194ZM16.2934 194H17.9974V190.46H21.9334V188.876H17.9974V186.848H21.9334V185.24H16.2934V194ZM23.3481 194H29.2401V192.392H25.0401V190.4H29.2401V188.804H25.0401V186.836H29.2401V185.24H23.3481V194Z" fill="#231B22"/>
<path d="M17 143.109C20.9774 143.109 24.7167 144.658 27.5293 147.471C30.3419 150.283 31.8907 154.023 31.8907 158C31.8907 161.977 30.3419 165.717 27.5293 168.529C24.7167 171.342 20.9774 172.891 17 172.891C13.0226 172.891 9.28331 171.342 6.47072 168.529C3.65813 165.717 2.10933 161.977 2.10933 158C2.10933 154.023 3.65813 150.283 6.47072 147.471C9.28331 144.658 13.0226 143.109 17 143.109ZM17 142C8.16373 142 1 149.164 1 158C1 166.836 8.16373 174 17 174C25.8363 174 33 166.836 33 158C33 149.164 25.8363 142 17 142Z" fill="#231B22"/>
</svg>
