<svg width="34" height="64" viewBox="0 0 34 64" fill="none" xmlns="http://www.w3.org/2000/svg">
<path d="M31.5316 12.3223L20.1768 14.3244V14.5214L31.5324 16.5236L31.396 17.2963L20.0403 15.2941L19.973 15.4792L29.9587 21.2441L29.5663 21.9239L19.5806 16.1589L19.454 16.3098L26.8659 25.1427L26.2646 25.6475L18.8527 16.8146L18.6821 16.9131L22.6258 27.7482L21.888 28.0169L17.9443 17.1818L17.7503 17.216V28.7473H16.9655V17.2167L16.7716 17.1825L12.8279 28.0176L12.0901 27.749L16.0338 16.9138L15.8632 16.8153L8.45128 25.6482L7.84995 25.1435L15.2619 16.3106L15.1353 16.1597L5.14958 21.9246L4.75717 21.2448L14.7436 15.4792L14.6763 15.2941L3.32066 17.2963L3.18423 16.5236L14.5398 14.5214V14.3244L3.18423 12.3222L3.32066 11.5495L14.6755 13.5517L14.7429 13.3666L4.75717 7.60172L5.14958 6.92194L15.136 12.6876L15.2626 12.5367L7.85071 3.70383L8.45203 3.19911L15.8632 12.032L16.0338 11.9335L12.0901 1.09835L12.8279 0.829676L16.7708 11.6648L16.9648 11.6306V0.1H17.7496V11.6306L17.9435 11.6648L21.8872 0.829673L22.625 1.09835L18.6813 11.9327L18.8519 12.0312L26.2638 3.19835L26.8651 3.70307L19.4532 12.536L19.5798 12.6868L29.5655 6.92193L29.9579 7.60172L19.9722 13.3666L20.0396 13.5517L31.3952 11.5495L31.5316 12.3223ZM15.0232 14.4229C15.0232 15.7122 16.0687 16.7577 17.3579 16.7577C18.6472 16.7577 19.6927 15.7122 19.6927 14.4229C19.6927 13.1336 18.6472 12.0881 17.3579 12.0881C16.0687 12.0881 15.0232 13.1336 15.0232 14.4229Z" fill="#231B22" stroke="#231B22" stroke-width="0.2"/>
<path d="M33.1839 35.3723L33.3129 35.1476H33.0538H0.999847H0.740782L0.869758 35.3723L8.88289 49.3313L16.896 63.2903L17.0261 63.5169L17.1562 63.2903L25.1693 49.3313L33.1839 35.3723ZM31.1233 36.418L24.0741 48.6967L17.0261 60.9735L9.97882 48.6967L2.93041 36.418H31.1233Z" fill="#231B22" stroke="#231B22" stroke-width="0.3"/>
</svg>
