<svg width="61" height="217" viewBox="0 0 61 217" fill="none" xmlns="http://www.w3.org/2000/svg">
<path d="M17.852 51H23.6V49.356H19.556V42.24H17.852V51ZM24.9432 51H26.6592V42.24H24.9432V51ZM28.2934 51H29.9974V47.46H33.9334V45.876H29.9974V43.848H33.9334V42.24H28.2934V51ZM35.3481 51H41.2401V49.392H37.0401V47.4H41.2401V45.804H37.0401V43.836H41.2401V42.24H35.3481V51Z" fill="#231B22"/>
<path d="M15.27 129H18.918C20.862 129 22.062 128.136 22.062 126.408C22.062 125.496 21.654 124.836 20.922 124.464C21.57 124.092 21.93 123.492 21.93 122.688C21.93 121.116 20.838 120.24 18.894 120.24H15.27V129ZM18.87 125.292C19.938 125.292 20.346 125.688 20.346 126.372C20.346 127.056 19.866 127.476 18.942 127.476H16.938V125.292H18.87ZM18.93 121.74C19.818 121.74 20.238 122.112 20.238 122.724C20.238 123.324 19.854 123.768 18.954 123.768H16.938V121.74H18.93ZM27.5221 129.12C30.0301 129.12 32.0221 127.104 32.0221 124.62C32.0221 122.136 30.0181 120.12 27.5221 120.12C25.0381 120.12 23.0461 122.136 23.0461 124.62C23.0461 127.104 25.0381 129.12 27.5221 129.12ZM27.5221 127.452C25.9501 127.452 24.7501 126.168 24.7501 124.62C24.7501 123.06 25.9501 121.776 27.5221 121.776C29.1061 121.776 30.3181 123.06 30.3181 124.62C30.3181 126.168 29.1181 127.452 27.5221 127.452ZM33.3285 129H36.1965C38.8125 129 40.7325 127.116 40.7325 124.62C40.7325 122.136 38.9445 120.24 36.1605 120.24H33.3285V129ZM36.0405 121.812C37.9605 121.812 39.0165 123.012 39.0165 124.62C39.0165 126.192 37.8645 127.416 36.0885 127.416H35.0325V121.812H36.0405ZM43.6038 129H45.3078V125.34L48.2958 120.24H46.4478L44.4678 123.72L42.4878 120.24H40.6278L43.6038 125.304V129Z" fill="#231B22"/>
<path d="M14.7289 206H16.4089V199.916L18.9649 203.384L21.5929 199.856V206H23.2489V197.24H21.6769L18.9769 200.852L16.3729 197.24H14.7289V206ZM24.8788 206H26.5948V197.24H24.8788V206ZM28.2289 206H29.8729V199.844L33.8329 206H35.5129V197.24H33.8809V203.204L30.0409 197.24H28.2289V206ZM37.0883 206H39.9563C42.5723 206 44.4923 204.116 44.4923 201.62C44.4923 199.136 42.7043 197.24 39.9203 197.24H37.0883V206ZM39.8003 198.812C41.7203 198.812 42.7763 200.012 42.7763 201.62C42.7763 203.192 41.6243 204.416 39.8483 204.416H38.7923V198.812H39.8003Z" fill="#231B22"/>
<path d="M45.2283 165.553L45.0412 164.493L32.5254 166.7L43.5314 160.346L42.9933 159.414L31.9874 165.768L40.1566 156.033L39.3321 155.341L31.1629 165.076L35.5095 153.135L34.498 152.767L30.1514 164.709V152H29.0753V164.709L24.7295 152.767L23.718 153.135L28.0646 165.077L19.8962 155.342L19.0717 156.034L27.241 165.769L16.2341 159.414L15.6961 160.346L26.7021 166.7L14.1871 164.493L14 165.553L26.5158 167.76L14 169.967L14.1871 171.026L26.7029 168.819L15.6961 175.174L16.2341 176.106L27.2401 169.752L19.0709 179.488L19.8954 180.18L28.0646 170.444L23.718 182.386L24.7295 182.755L29.0761 170.813V183.521H30.1522V170.812L34.4988 182.754L35.5103 182.386L31.1637 170.443L39.333 180.179L40.1574 179.487L31.9882 169.751L42.9942 176.105L43.5322 175.173L32.5262 168.819L45.0421 171.026L45.2291 169.967L32.7133 167.76L45.2291 165.553H45.2283ZM29.6142 170.202C28.2657 170.202 27.1722 169.108 27.1722 167.76C27.1722 166.411 28.2657 165.318 29.6142 165.318C30.9626 165.318 32.0561 166.411 32.0561 167.76C32.0561 169.108 30.9626 170.202 29.6142 170.202Z" fill="#231B22"/>
<path d="M29.8723 1.0761C33.7305 1.0761 37.3578 2.57849 40.0861 5.30681C42.8144 8.03513 44.3168 11.6624 44.3168 15.5206C44.3168 19.3788 42.8144 23.0061 40.0861 25.7344C37.3578 28.4627 33.7305 29.9651 29.8723 29.9651C26.0141 29.9651 22.3868 28.4627 19.6585 25.7344C16.9302 23.0061 15.4278 19.3788 15.4278 15.5206C15.4278 11.6624 16.9302 8.03513 19.6585 5.30681C22.3868 2.57849 26.0141 1.0761 29.8723 1.0761ZM29.8723 0C21.3008 0 14.3517 6.9491 14.3517 15.5206C14.3517 24.0921 21.3008 31.0412 29.8723 31.0412C38.4438 31.0412 45.3929 24.0921 45.3929 15.5206C45.3929 6.9491 38.4438 0 29.8723 0Z" fill="#231B22"/>
<path d="M45.8838 75.0761L37.8785 88.9412L29.8731 102.806L21.8686 88.9412L13.8641 75.0761H45.8838ZM47.7479 74H12L20.9366 89.4792L29.8731 104.958L38.8097 89.4792L47.7479 74Z" fill="#231B22"/>
</svg>
