<svg width="20" height="161" viewBox="0 0 20 161" fill="none" xmlns="http://www.w3.org/2000/svg">
<path d="M10 77L10 159" stroke="#231B22" stroke-width="3" stroke-linecap="round" stroke-linejoin="round"/>
<path d="M18 146L10 159L2 146" stroke="#231B22" stroke-width="3" stroke-linecap="round" stroke-linejoin="round"/>
<path d="M4.78 57.104V53.8C4.78 52.988 4.91067 52.2553 5.172 51.602C5.43333 50.9393 5.79267 50.3793 6.25 49.922C6.70733 49.4553 7.24867 49.096 7.874 48.844C8.49 48.592 9.162 48.466 9.89 48.466C10.618 48.466 11.2947 48.6013 11.92 48.872C12.5453 49.1333 13.0867 49.502 13.544 49.978C13.992 50.4447 14.3467 51 14.608 51.644C14.8693 52.288 15 52.9927 15 53.758V57.104H4.78ZM6.614 55.116H13.152V53.884C13.152 53.3707 13.068 52.904 12.9 52.484C12.732 52.0547 12.5033 51.6953 12.214 51.406C11.9153 51.1073 11.57 50.8787 11.178 50.72C10.7767 50.552 10.3473 50.468 9.89 50.468C9.42333 50.468 8.98933 50.5473 8.588 50.706C8.18667 50.8553 7.84133 51.0793 7.552 51.378C7.25333 51.6673 7.02467 52.0267 6.866 52.456C6.698 52.8853 6.614 53.38 6.614 53.94V55.116ZM4.78 46.9321V40.0581H6.642V44.9581H8.938V40.0581H10.8L10.8 44.9581H13.124L13.124 40.0581H15L15 46.9321H4.78ZM15.14 34.5402C15.14 35.0908 15.0887 35.5902 14.986 36.0382C14.8833 36.4862 14.7387 36.8922 14.552 37.2562C14.3653 37.6202 14.146 37.9515 13.894 38.2502C13.6327 38.5395 13.348 38.8055 13.04 39.0482L11.668 37.3262C12.2 36.9902 12.6013 36.5935 12.872 36.1362C13.1427 35.6788 13.278 35.1422 13.278 34.5262C13.278 33.9662 13.1613 33.5462 12.928 33.2662C12.6853 32.9862 12.3773 32.8462 12.004 32.8462C11.7707 32.8462 11.5793 32.9068 11.43 33.0282C11.2713 33.1402 11.1407 33.3035 11.038 33.5182C10.926 33.7235 10.8373 33.9755 10.772 34.2742C10.6973 34.5635 10.618 34.8855 10.534 35.2402C10.45 35.6228 10.352 36.0055 10.24 36.3882C10.1187 36.7708 9.95533 37.1162 9.75 37.4242C9.53533 37.7322 9.26467 37.9842 8.938 38.1802C8.602 38.3762 8.17267 38.4742 7.65 38.4742C7.23 38.4742 6.838 38.3855 6.474 38.2082C6.10067 38.0308 5.77867 37.7835 5.508 37.4662C5.23733 37.1395 5.02267 36.7568 4.864 36.3182C4.70533 35.8702 4.626 35.3802 4.626 34.8482C4.626 34.4002 4.668 33.9895 4.752 33.6162C4.82667 33.2428 4.93867 32.8975 5.088 32.5802C5.23733 32.2535 5.424 31.9548 5.648 31.6842C5.86267 31.4042 6.11467 31.1335 6.404 30.8722L7.664 32.4822C7.272 32.7528 6.964 33.0748 6.74 33.4482C6.50667 33.8122 6.39 34.2882 6.39 34.8762C6.39 35.4362 6.51133 35.8422 6.754 36.0942C6.98733 36.3368 7.272 36.4582 7.608 36.4582C7.81333 36.4582 7.98133 36.3975 8.112 36.2762C8.24267 36.1548 8.35467 35.9915 8.448 35.7862C8.532 35.5808 8.60667 35.3382 8.672 35.0582C8.73733 34.7782 8.80733 34.4795 8.882 34.1622C8.966 33.7702 9.06867 33.3735 9.19 32.9722C9.31133 32.5708 9.484 32.2115 9.708 31.8942C9.932 31.5675 10.2213 31.3015 10.576 31.0962C10.9307 30.8908 11.3833 30.7882 11.934 30.7882C12.3727 30.7882 12.788 30.8768 13.18 31.0542C13.5627 31.2315 13.9033 31.4835 14.202 31.8102C14.4913 32.1368 14.72 32.5335 14.888 33.0002C15.056 33.4575 15.14 33.9708 15.14 34.5402ZM4.78 29.3501V27.3621H13.082V22.6441H15V29.3501H4.78ZM4.78 21.077V19.075H15V21.077H4.78ZM13.166 17.3775L6.6 12.1975V17.2095H4.78L4.78 9.88747H6.558L13.138 15.0535L13.138 9.83147H15L15 17.3775H13.166ZM4.78 8.21337V1.33937H6.642V6.23937H8.938V1.33937H10.8V6.23937H13.124V1.33937H15V8.21337H4.78Z" fill="#231B22"/>
</svg>
