<svg width="46" height="198" viewBox="0 0 46 198" fill="none" xmlns="http://www.w3.org/2000/svg">
<path d="M3.16644 113.24H4.81044L7.41444 116.852L10.1144 113.24H11.6864V122H10.0304V115.856L7.40244 119.384L4.84644 115.916V122H3.16644V113.24ZM13.2563 113.24H19.1483V114.836H14.9483V116.804H19.1483V118.4H14.9483V120.392H19.1483V122H13.2563V113.24ZM20.6157 113.24H22.4277L26.2677 119.204V113.24H27.8997V122H26.2197L22.2597 115.844V122H20.6157V113.24ZM31.6479 114.8H29.2119V113.24H35.7279V114.8H33.3159V122H31.6479V114.8ZM37.0336 113.24H42.9256V114.836H38.7256V116.804H42.9256V118.4H38.7256V120.392H42.9256V122H37.0336V113.24Z" fill="#231B22"/>
<path d="M38.9992 83.7588L38.8075 82.6832L25.9827 84.9235L37.2603 78.4731L36.709 77.5269L25.4314 83.9773L33.8022 74.0941L32.9574 73.3916L24.5866 83.2748L29.0405 71.1521L28.004 70.7782L23.5501 82.9017V70H22.4474V82.9017L17.9944 70.7782L16.9579 71.1521L21.4117 83.2756L13.0417 73.3924L12.1969 74.095L20.5678 83.9782L9.28929 77.5269L8.73796 78.4731L20.0156 84.9235L7.19169 82.6832L7 83.7588L19.8248 85.9992L7 88.2395L7.19169 89.3151L20.0165 87.0748L8.73796 93.526L9.28929 94.4723L20.5669 88.0219L12.1961 97.905L13.0409 98.6076L21.4117 88.7244L16.9579 100.848L17.9944 101.222L22.4482 89.0983V102H23.5509V89.0975L28.0048 101.221L29.0413 100.847L24.5874 88.7235L32.9583 98.6067L33.8031 97.9042L25.4322 88.021L36.7099 94.4714L37.2612 93.5252L25.9835 87.0748L38.8083 89.3151L39 88.2395L26.1752 85.9992L39 83.7588H38.9992ZM22.9996 88.4782C21.6179 88.4782 20.4974 87.3681 20.4974 85.9992C20.4974 84.6303 21.6179 83.5202 22.9996 83.5202C24.3813 83.5202 25.5018 84.6303 25.5018 85.9992C25.5018 87.3681 24.3813 88.4782 22.9996 88.4782Z" fill="#231B22"/>
<path d="M5.35836 50.12C4.69436 50.12 4.08636 50.004 3.53436 49.772C2.99036 49.532 2.51836 49.208 2.11836 48.8C1.72636 48.392 1.41836 47.916 1.19436 47.372C0.978359 46.828 0.870359 46.244 0.870359 45.62C0.870359 44.98 0.982359 44.388 1.20636 43.844C1.43836 43.292 1.75436 42.816 2.15436 42.416C2.56236 42.008 3.03836 41.692 3.58236 41.468C4.12636 41.236 4.71836 41.12 5.35836 41.12C5.77436 41.12 6.17436 41.172 6.55836 41.276C6.95036 41.38 7.31036 41.528 7.63836 41.72C7.97436 41.912 8.27836 42.144 8.55036 42.416C8.82236 42.68 9.05436 42.976 9.24636 43.304L7.75836 44.24C7.52636 43.784 7.20636 43.428 6.79836 43.172C6.39836 42.908 5.92236 42.776 5.37036 42.776C4.97036 42.776 4.59836 42.852 4.25436 43.004C3.91836 43.148 3.62636 43.348 3.37836 43.604C3.13036 43.86 2.93436 44.164 2.79036 44.516C2.65436 44.86 2.58636 45.228 2.58636 45.62C2.58636 46.004 2.65436 46.368 2.79036 46.712C2.92636 47.056 3.11836 47.356 3.36636 47.612C3.61436 47.868 3.90636 48.072 4.24236 48.224C4.57836 48.368 4.94636 48.44 5.34636 48.44C5.94636 48.44 6.45436 48.292 6.87036 47.996C7.29436 47.692 7.61436 47.3 7.83036 46.82L9.37836 47.648C9.19436 48.016 8.96636 48.352 8.69436 48.656C8.42236 48.96 8.11436 49.22 7.77036 49.436C7.43436 49.652 7.06236 49.82 6.65436 49.94C6.24636 50.06 5.81436 50.12 5.35836 50.12ZM14.4753 50.12C13.8513 50.12 13.2673 50.004 12.7233 49.772C12.1793 49.532 11.7033 49.208 11.2953 48.8C10.8953 48.392 10.5793 47.916 10.3473 47.372C10.1153 46.828 9.99927 46.244 9.99927 45.62C9.99927 44.996 10.1153 44.412 10.3473 43.868C10.5793 43.324 10.8953 42.848 11.2953 42.44C11.7033 42.032 12.1793 41.712 12.7233 41.48C13.2673 41.24 13.8513 41.12 14.4753 41.12C15.0993 41.12 15.6833 41.24 16.2273 41.48C16.7793 41.712 17.2553 42.032 17.6553 42.44C18.0633 42.848 18.3833 43.324 18.6153 43.868C18.8553 44.412 18.9753 44.996 18.9753 45.62C18.9753 46.244 18.8593 46.828 18.6273 47.372C18.3953 47.916 18.0753 48.392 17.6673 48.8C17.2593 49.208 16.7793 49.532 16.2273 49.772C15.6833 50.004 15.0993 50.12 14.4753 50.12ZM14.4753 48.452C14.8753 48.452 15.2433 48.38 15.5793 48.236C15.9233 48.084 16.2193 47.88 16.4673 47.624C16.7233 47.36 16.9193 47.056 17.0553 46.712C17.1993 46.368 17.2713 46.004 17.2713 45.62C17.2713 45.228 17.1993 44.86 17.0553 44.516C16.9113 44.172 16.7153 43.872 16.4673 43.616C16.2193 43.36 15.9233 43.156 15.5793 43.004C15.2353 42.852 14.8673 42.776 14.4753 42.776C14.0833 42.776 13.7153 42.852 13.3713 43.004C13.0353 43.156 12.7433 43.36 12.4953 43.616C12.2473 43.872 12.0513 44.172 11.9073 44.516C11.7713 44.86 11.7033 45.228 11.7033 45.62C11.7033 46.004 11.7713 46.368 11.9073 46.712C12.0513 47.056 12.2473 47.36 12.4953 47.624C12.7433 47.88 13.0353 48.084 13.3713 48.236C13.7153 48.38 14.0833 48.452 14.4753 48.452ZM20.2817 41.24H23.8337C24.3377 41.24 24.7857 41.316 25.1777 41.468C25.5777 41.62 25.9137 41.832 26.1857 42.104C26.4657 42.368 26.6777 42.68 26.8217 43.04C26.9737 43.4 27.0497 43.788 27.0497 44.204C27.0497 44.756 26.9137 45.264 26.6417 45.728C26.3777 46.192 26.0017 46.548 25.5137 46.796L27.2417 50H25.3457L23.9417 47.24H21.9737V50H20.2817V41.24ZM21.9737 42.8V45.692H23.7017C23.9817 45.692 24.2217 45.652 24.4217 45.572C24.6297 45.492 24.8017 45.384 24.9377 45.248C25.0737 45.112 25.1737 44.956 25.2377 44.78C25.3017 44.596 25.3337 44.408 25.3337 44.216C25.3337 43.784 25.1977 43.44 24.9257 43.184C24.6537 42.928 24.2457 42.8 23.7017 42.8H21.9737ZM28.3442 41.24H31.8002C32.2882 41.24 32.7322 41.324 33.1322 41.492C33.5402 41.652 33.8882 41.876 34.1762 42.164C34.4642 42.452 34.6882 42.792 34.8482 43.184C35.0082 43.568 35.0882 43.98 35.0882 44.42C35.0882 44.852 35.0082 45.264 34.8482 45.656C34.6882 46.04 34.4642 46.38 34.1762 46.676C33.8882 46.964 33.5402 47.192 33.1322 47.36C32.7322 47.528 32.2842 47.612 31.7882 47.612H30.0482V50H28.3442V41.24ZM30.0482 42.788V46.04H31.6922C31.9402 46.04 32.1682 46 32.3762 45.92C32.5842 45.84 32.7602 45.728 32.9042 45.584C33.0562 45.44 33.1722 45.268 33.2522 45.068C33.3322 44.868 33.3722 44.652 33.3722 44.42C33.3722 44.18 33.3322 43.96 33.2522 43.76C33.1722 43.56 33.0562 43.388 32.9042 43.244C32.7602 43.1 32.5842 42.988 32.3762 42.908C32.1682 42.828 31.9402 42.788 31.6922 42.788H30.0482ZM40.6432 50.12C40.0192 50.12 39.4352 50.004 38.8912 49.772C38.3472 49.532 37.8712 49.208 37.4632 48.8C37.0632 48.392 36.7472 47.916 36.5152 47.372C36.2832 46.828 36.1672 46.244 36.1672 45.62C36.1672 44.996 36.2832 44.412 36.5152 43.868C36.7472 43.324 37.0632 42.848 37.4632 42.44C37.8712 42.032 38.3472 41.712 38.8912 41.48C39.4352 41.24 40.0192 41.12 40.6432 41.12C41.2672 41.12 41.8512 41.24 42.3952 41.48C42.9472 41.712 43.4232 42.032 43.8232 42.44C44.2312 42.848 44.5512 43.324 44.7832 43.868C45.0232 44.412 45.1432 44.996 45.1432 45.62C45.1432 46.244 45.0272 46.828 44.7952 47.372C44.5632 47.916 44.2432 48.392 43.8352 48.8C43.4272 49.208 42.9472 49.532 42.3952 49.772C41.8512 50.004 41.2672 50.12 40.6432 50.12ZM40.6432 48.452C41.0432 48.452 41.4112 48.38 41.7472 48.236C42.0912 48.084 42.3872 47.88 42.6352 47.624C42.8912 47.36 43.0872 47.056 43.2232 46.712C43.3672 46.368 43.4392 46.004 43.4392 45.62C43.4392 45.228 43.3672 44.86 43.2232 44.516C43.0792 44.172 42.8832 43.872 42.6352 43.616C42.3872 43.36 42.0912 43.156 41.7472 43.004C41.4032 42.852 41.0352 42.776 40.6432 42.776C40.2512 42.776 39.8832 42.852 39.5392 43.004C39.2032 43.156 38.9112 43.36 38.6632 43.616C38.4152 43.872 38.2192 44.172 38.0752 44.516C37.9392 44.86 37.8712 45.228 37.8712 45.62C37.8712 46.004 37.9392 46.368 38.0752 46.712C38.2192 47.056 38.4152 47.36 38.6632 47.624C38.9112 47.88 39.2032 48.084 39.5392 48.236C39.8832 48.38 40.2512 48.452 40.6432 48.452Z" fill="#231B22"/>
<path d="M38.8348 1.04278L31.0773 14.4786L23.3198 27.9144L15.5631 14.4786L7.80642 1.04278H38.8348ZM40.6412 0H6L14.6599 15L23.3198 30L31.9797 15L40.6412 0Z" fill="#231B22"/>
<path d="M9.26008 185.24H11.0481L13.4001 191.744L15.7761 185.24H17.5521L14.2401 194H12.5721L9.26008 185.24ZM18.5565 185.24H20.2725V194H18.5565V185.24ZM21.9067 185.24H24.7387C25.4347 185.24 26.0627 185.352 26.6227 185.576C27.1907 185.8 27.6707 186.108 28.0627 186.5C28.4627 186.892 28.7707 187.356 28.9867 187.892C29.2027 188.42 29.3107 188.996 29.3107 189.62C29.3107 190.244 29.1947 190.824 28.9627 191.36C28.7387 191.896 28.4227 192.36 28.0147 192.752C27.6147 193.136 27.1387 193.44 26.5867 193.664C26.0347 193.888 25.4307 194 24.7747 194H21.9067V185.24ZM23.6107 186.812V192.416H24.6667C25.1067 192.416 25.5067 192.344 25.8667 192.2C26.2347 192.056 26.5427 191.86 26.7907 191.612C27.0467 191.356 27.2427 191.06 27.3787 190.724C27.5227 190.38 27.5947 190.012 27.5947 189.62C27.5947 189.22 27.5267 188.848 27.3907 188.504C27.2627 188.16 27.0707 187.864 26.8147 187.616C26.5667 187.36 26.2587 187.164 25.8907 187.028C25.5227 186.884 25.0987 186.812 24.6187 186.812H23.6107ZM32.7635 185.24H34.4315L37.7435 194H36.0035L35.4275 192.404H31.7675L31.1915 194H29.4515L32.7635 185.24ZM32.3315 190.868H34.8635L33.6035 187.388L32.3315 190.868Z" fill="#231B22"/>
<path d="M23 143.109C26.9774 143.109 30.7167 144.658 33.5293 147.471C36.3419 150.283 37.8907 154.023 37.8907 158C37.8907 161.977 36.3419 165.717 33.5293 168.529C30.7167 171.342 26.9774 172.891 23 172.891C19.0226 172.891 15.2833 171.342 12.4707 168.529C9.65813 165.717 8.10933 161.977 8.10933 158C8.10933 154.023 9.65813 150.283 12.4707 147.471C15.2833 144.658 19.0226 143.109 23 143.109ZM23 142C14.1637 142 7 149.164 7 158C7 166.836 14.1637 174 23 174C31.8363 174 39 166.836 39 158C39 149.164 31.8363 142 23 142Z" fill="#231B22"/>
</svg>
