<svg width="49" height="227" viewBox="0 0 49 227" fill="none" xmlns="http://www.w3.org/2000/svg">
<path d="M24.154 119.842C24.154 120.383 24.098 120.878 23.986 121.326C23.874 121.765 23.72 122.166 23.524 122.53C23.328 122.885 23.0993 123.202 22.838 123.482C22.5767 123.753 22.2967 123.986 21.998 124.182L20.654 122.334C21.158 122.063 21.5547 121.709 21.844 121.27C22.124 120.831 22.264 120.309 22.264 119.702C22.264 119.198 22.1613 118.797 21.956 118.498C21.7413 118.19 21.466 118.008 21.13 117.952C20.8687 117.905 20.654 117.938 20.486 118.05C20.3087 118.153 20.1593 118.307 20.038 118.512C19.9073 118.708 19.8 118.946 19.716 119.226C19.6227 119.506 19.5247 119.795 19.422 120.094C19.31 120.458 19.1793 120.817 19.03 121.172C18.8713 121.517 18.6707 121.821 18.428 122.082C18.1853 122.334 17.8867 122.525 17.532 122.656C17.168 122.777 16.72 122.791 16.188 122.698C15.8147 122.633 15.4693 122.493 15.152 122.278C14.8347 122.054 14.564 121.779 14.34 121.452C14.1067 121.116 13.9293 120.738 13.808 120.318C13.6773 119.889 13.612 119.431 13.612 118.946C13.612 118.47 13.6587 118.036 13.752 117.644C13.836 117.252 13.9573 116.897 14.116 116.58C14.2747 116.263 14.466 115.978 14.69 115.726C14.914 115.465 15.1613 115.227 15.432 115.012L16.636 116.79C16.2813 116.995 15.9827 117.294 15.74 117.686C15.4973 118.069 15.376 118.549 15.376 119.128C15.376 119.604 15.474 119.977 15.67 120.248C15.8567 120.509 16.0993 120.668 16.398 120.724C16.6127 120.761 16.7947 120.738 16.944 120.654C17.0933 120.561 17.224 120.425 17.336 120.248C17.4387 120.061 17.5367 119.842 17.63 119.59C17.714 119.329 17.8073 119.044 17.91 118.736C18.0313 118.363 18.176 117.989 18.344 117.616C18.5027 117.243 18.7127 116.916 18.974 116.636C19.226 116.347 19.548 116.132 19.94 115.992C20.3227 115.852 20.794 115.833 21.354 115.936C21.746 116.011 22.1147 116.155 22.46 116.37C22.796 116.575 23.09 116.846 23.342 117.182C23.594 117.518 23.7947 117.91 23.944 118.358C24.084 118.806 24.154 119.301 24.154 119.842ZM24.14 109.727C24.14 110.586 23.986 111.347 23.678 112.009C23.37 112.672 22.95 113.218 22.418 113.647C21.886 114.067 21.27 114.361 20.57 114.529C19.8607 114.688 19.1187 114.697 18.344 114.557C17.672 114.445 17.0513 114.226 16.482 113.899C15.9033 113.563 15.404 113.148 14.984 112.653C14.564 112.159 14.2373 111.594 14.004 110.959C13.7613 110.325 13.64 109.643 13.64 108.915C13.64 107.851 13.8827 106.941 14.368 106.185C14.8533 105.42 15.53 104.841 16.398 104.449L17.336 106.367C16.748 106.61 16.3093 106.951 16.02 107.389C15.7213 107.828 15.572 108.393 15.572 109.083C15.572 109.531 15.6467 109.951 15.796 110.343C15.9453 110.735 16.1507 111.085 16.412 111.393C16.6733 111.692 16.9907 111.944 17.364 112.149C17.728 112.355 18.1247 112.495 18.554 112.569C19.0393 112.653 19.5013 112.649 19.94 112.555C20.3787 112.453 20.766 112.271 21.102 112.009C21.438 111.748 21.704 111.412 21.9 111.001C22.096 110.591 22.194 110.119 22.194 109.587C22.194 109.037 22.054 108.528 21.774 108.061C21.494 107.595 21.1067 107.198 20.612 106.871L21.746 105.135C22.4833 105.667 23.0667 106.311 23.496 107.067C23.9253 107.823 24.14 108.71 24.14 109.727ZM13.78 102.515V98.4549C13.78 97.8856 13.878 97.3723 14.074 96.9149C14.2607 96.4483 14.5267 96.0656 14.872 95.7669C15.2173 95.4589 15.6233 95.2443 16.09 95.1229C16.5567 94.9923 17.07 94.9736 17.63 95.0669C18.2647 95.1789 18.8387 95.4636 19.352 95.9209C19.856 96.3689 20.2247 96.9523 20.458 97.6709L24 95.8369V98.0489L20.724 99.6309V101.745L24 102.319V104.307L13.78 102.515ZM15.558 100.835L18.946 101.437V99.2669C18.946 98.6509 18.8107 98.1563 18.54 97.7829C18.2693 97.4096 17.8867 97.1809 17.392 97.0969C16.86 97.0036 16.4213 97.1016 16.076 97.3909C15.7307 97.6709 15.558 98.1516 15.558 98.8329V100.835ZM24.14 89.2359C24.14 90.0293 23.986 90.7479 23.678 91.3919C23.3607 92.0359 22.9407 92.5726 22.418 93.0019C21.886 93.4219 21.2747 93.7206 20.584 93.8979C19.884 94.0753 19.1467 94.0986 18.372 93.9679C17.7 93.8466 17.0747 93.6179 16.496 93.2819C15.9173 92.9459 15.418 92.5306 14.998 92.0359C14.5687 91.5319 14.2373 90.9673 14.004 90.3419C13.7613 89.7073 13.64 89.0399 13.64 88.3399C13.64 87.5466 13.7987 86.8326 14.116 86.1979C14.4333 85.5539 14.858 85.0219 15.39 84.6019C15.9127 84.1726 16.524 83.8693 17.224 83.6919C17.9147 83.5146 18.638 83.4913 19.394 83.6219C20.066 83.7339 20.6913 83.9579 21.27 84.2939C21.8487 84.6206 22.3527 85.0313 22.782 85.5259C23.202 86.0113 23.5333 86.5713 23.776 87.2059C24.0187 87.8406 24.14 88.5173 24.14 89.2359ZM22.194 89.0679C22.194 88.6199 22.1193 88.2046 21.97 87.8219C21.8113 87.4299 21.6013 87.0846 21.34 86.7859C21.0693 86.4779 20.752 86.2259 20.388 86.0299C20.024 85.8246 19.632 85.6846 19.212 85.6099C18.7453 85.5259 18.2927 85.5353 17.854 85.6379C17.4153 85.7313 17.028 85.9086 16.692 86.1699C16.356 86.4219 16.0853 86.7486 15.88 87.1499C15.6747 87.5513 15.572 88.0086 15.572 88.5219C15.572 88.9699 15.6513 89.3899 15.81 89.7819C15.9593 90.1646 16.1693 90.5099 16.44 90.8179C16.7013 91.1166 17.0187 91.3686 17.392 91.5739C17.756 91.7699 18.148 91.9053 18.568 91.9799C19.0533 92.0639 19.5153 92.0546 19.954 91.9519C20.3927 91.8493 20.78 91.6673 21.116 91.4059C21.4427 91.1446 21.704 90.8179 21.9 90.4259C22.096 90.0246 22.194 89.5719 22.194 89.0679ZM13.78 81.1048L13.78 79.1028L22.096 80.5728V76.0788L24 76.4148V82.8968L13.78 81.1048ZM13.78 73.1067V71.1047L22.096 72.5747V68.0807L24 68.4167V74.8987L13.78 73.1067Z" fill="#231B22"/>
<path d="M19 143L19 225" stroke="#231B22" stroke-width="3" stroke-linecap="round" stroke-linejoin="round"/>
<path d="M27 212L19 225L11 212" stroke="#231B22" stroke-width="3" stroke-linecap="round" stroke-linejoin="round"/>
</svg>
