<svg width="40" height="61" viewBox="0 0 40 61" fill="none" xmlns="http://www.w3.org/2000/svg">
<path d="M1.06495 15H5.32095C7.58895 15 8.98895 13.992 8.98895 11.976C8.98895 10.912 8.51295 10.142 7.65895 9.708C8.41495 9.274 8.83495 8.574 8.83495 7.636C8.83495 5.802 7.56095 4.78 5.29295 4.78H1.06495V15ZM5.26495 10.674C6.51095 10.674 6.98695 11.136 6.98695 11.934C6.98695 12.732 6.42695 13.222 5.34895 13.222H3.01095V10.674H5.26495ZM5.33495 6.53C6.37095 6.53 6.86095 6.964 6.86095 7.678C6.86095 8.378 6.41295 8.896 5.36295 8.896H3.01095V6.53H5.33495ZM15.3592 15.14C18.2852 15.14 20.6092 12.788 20.6092 9.89C20.6092 6.992 18.2712 4.64 15.3592 4.64C12.4612 4.64 10.1372 6.992 10.1372 9.89C10.1372 12.788 12.4612 15.14 15.3592 15.14ZM15.3592 13.194C13.5252 13.194 12.1252 11.696 12.1252 9.89C12.1252 8.07 13.5252 6.572 15.3592 6.572C17.2072 6.572 18.6212 8.07 18.6212 9.89C18.6212 11.696 17.2212 13.194 15.3592 13.194ZM22.1333 15H25.4793C28.5313 15 30.7713 12.802 30.7713 9.89C30.7713 6.992 28.6853 4.78 25.4373 4.78H22.1333V15ZM25.2973 6.614C27.5373 6.614 28.7693 8.014 28.7693 9.89C28.7693 11.724 27.4253 13.152 25.3533 13.152H24.1213V6.614H25.2973ZM34.1211 15H36.1091V10.73L39.5951 4.78H37.4391L35.1291 8.84L32.8191 4.78H30.6491L34.1211 10.688V15Z" fill="#231B22"/>
<path d="M39.1671 28.125L39.3836 27.75H38.9506H2H1.567L1.78349 28.125L11.0207 44.125L20.2579 60.125L20.4744 60.5L20.691 60.125L29.9282 44.125L29.9282 44.125L39.1671 28.125ZM4.35984 29.3623H36.5907L28.5326 43.3188L20.4745 57.2754L12.4172 43.3189L4.35984 29.3623Z" fill="#231B22" stroke="black" stroke-width="0.5"/>
</svg>
