<svg width="38" height="66" viewBox="0 0 38 66" fill="none" xmlns="http://www.w3.org/2000/svg">
<path d="M36.7622 47C36.7622 56.9534 28.8006 65 19.0066 65C9.21261 65 1.25098 56.9534 1.25098 47C1.25098 37.0466 9.21261 29 19.0066 29C28.8006 29 36.7622 37.0466 36.7622 47Z" stroke="#231B22" stroke-width="2"/>
<path d="M5.91068 15H12.6167V13.082H7.89868V4.78H5.91068V15ZM14.1838 15H16.1858V4.78H14.1838V15ZM18.0923 15H20.0803V10.87H24.6723V9.022H20.0803V6.656H24.6723V4.78H18.0923V15ZM26.3228 15H33.1968V13.124H28.2968V10.8H33.1968V8.938H28.2968V6.642H33.1968V4.78H26.3228V15Z" fill="#231B22"/>
</svg>
